<svg width="129" height="60" viewBox="0 0 129 60" fill="none" xmlns="http://www.w3.org/2000/svg">
<path fill-rule="evenodd" clip-rule="evenodd" d="M2.06979 54.6321H2.75613C3.51608 54.6321 3.89646 54.3033 3.89646 53.6449C3.89646 52.9874 3.51608 52.6586 2.75613 52.6586H2.06979V54.6321ZM2.06979 58.9142H0V51H3.29446C4.18837 51 4.87306 51.231 5.34854 51.6929C5.82319 52.1548 6.06135 52.8049 6.06135 53.6449C6.06135 54.4849 5.82319 55.1359 5.34854 55.597C4.87306 56.0589 4.18837 56.2899 3.29446 56.2899H2.06979V58.9142Z" fill="#348D3D"/>
<path fill-rule="evenodd" clip-rule="evenodd" d="M9.09262 55.1778C9.09262 55.4918 9.15216 55.7827 9.27206 56.0482C9.39197 56.3145 9.55322 56.5455 9.75747 56.7411C9.96171 56.9375 10.199 57.0896 10.4703 57.1981C10.7415 57.3066 11.0284 57.3608 11.3311 57.3608C11.6338 57.3608 11.9207 57.3066 12.1919 57.1981C12.4623 57.0896 12.7021 56.9375 12.9097 56.7411C13.1173 56.5455 13.281 56.3145 13.4009 56.0482C13.52 55.7827 13.5803 55.4918 13.5803 55.1778C13.5803 54.8622 13.52 54.5721 13.4009 54.3066C13.281 54.0403 13.1173 53.8093 12.9097 53.6137C12.7021 53.4181 12.4623 53.2652 12.1919 53.1567C11.9207 53.0482 11.6338 52.994 11.3311 52.994C11.0284 52.994 10.7415 53.0482 10.4703 53.1567C10.199 53.2652 9.96171 53.4181 9.75747 53.6137C9.55322 53.8093 9.39197 54.0403 9.27206 54.3066C9.15216 54.5721 9.09262 54.8622 9.09262 55.1778ZM6.92773 55.1778C6.92773 54.5893 7.03689 54.0419 7.2552 53.5348C7.47268 53.0277 7.77616 52.5847 8.16316 52.2066C8.55016 51.8293 9.01323 51.5334 9.55156 51.3197C10.0899 51.1068 10.6836 51 11.3311 51C11.972 51 12.5632 51.1068 13.1048 51.3197C13.6473 51.5334 14.1137 51.8293 14.504 52.2066C14.8951 52.5847 15.1994 53.0277 15.4178 53.5348C15.6361 54.0419 15.7452 54.5893 15.7452 55.1778C15.7452 55.7647 15.6361 56.3129 15.4178 56.82C15.1994 57.3271 14.8951 57.7701 14.504 58.1474C14.1137 58.5255 13.6473 58.8214 13.1048 59.0342C12.5632 59.2479 11.972 59.3548 11.3311 59.3548C10.6836 59.3548 10.0899 59.2479 9.55156 59.0342C9.01323 58.8214 8.55016 58.5255 8.16316 58.1474C7.77616 57.7701 7.47268 57.3271 7.2552 56.82C7.03689 56.3129 6.92773 55.7647 6.92773 55.1778Z" fill="#348D3D"/>
<path fill-rule="evenodd" clip-rule="evenodd" d="M18.2567 51L19.6294 56.1115L21.3196 51H22.9668L24.6562 56.1115L26.0289 51H28.193L25.8172 58.9142H23.7053L22.1424 54.3279L20.5795 58.9142H18.4675L16.0918 51H18.2567Z" fill="#348D3D"/>
<path fill-rule="evenodd" clip-rule="evenodd" d="M33.8229 52.7425H31.3628V54.0649H33.6856V55.8074H31.3628V57.1718H33.8229V58.9142H29.293V51H33.8229V52.7425Z" fill="#348D3D"/>
<path fill-rule="evenodd" clip-rule="evenodd" d="M37.3276 54.5375H37.7187C38.1272 54.5375 38.4406 54.4529 38.6589 54.2852C38.8764 54.1175 38.9856 53.8759 38.9856 53.5611C38.9856 53.2463 38.8764 53.0047 38.6589 52.837C38.4406 52.6685 38.1272 52.5847 37.7187 52.5847H37.3276V54.5375ZM41.879 58.9142H39.3031L37.3276 55.8699V58.9142H35.2578V51H38.4787C38.9227 51 39.3097 51.0649 39.6405 51.194C39.9713 51.3238 40.2442 51.5005 40.4592 51.7241C40.6733 51.9485 40.8354 52.2066 40.9446 52.5008C41.0537 52.7951 41.1083 53.1099 41.1083 53.446C41.1083 54.0477 40.9619 54.5351 40.67 54.9099C40.3781 55.2847 39.9465 55.5378 39.3767 55.671L41.879 58.9142Z" fill="#348D3D"/>
<path fill-rule="evenodd" clip-rule="evenodd" d="M47.7606 51L49.1333 56.1115L50.8235 51H52.4707L54.1601 56.1115L55.5328 51H57.6977L55.322 58.9142H53.2092L51.6471 54.3279L50.0842 58.9142H47.9723L45.5957 51H47.7606Z" fill="#348D3D"/>
<path fill-rule="evenodd" clip-rule="evenodd" d="M60.8452 54.0542H63.8337V51H65.9035V58.9142H63.8337V55.6496H60.8452V58.9142H58.7754V51H60.8452V54.0542Z" fill="#348D3D"/>
<path fill-rule="evenodd" clip-rule="evenodd" d="M71.9217 55.9751L70.9923 53.3408L70.0628 55.9751H71.9217ZM72.4708 57.5392H69.5137L69.0391 58.9142H66.832L69.8627 51H72.1219L75.1534 58.9142H72.9463L72.4708 57.5392Z" fill="#348D3D"/>
<path fill-rule="evenodd" clip-rule="evenodd" d="M78.268 52.7425V58.9142H76.1982V52.7425H74.498V51H79.9681V52.7425H78.268Z" fill="#348D3D"/>
<path fill-rule="evenodd" clip-rule="evenodd" d="M81.5631 51H83.3691L81.4258 54.4849H80.2012L81.5631 51Z" fill="#348D3D"/>
<path fill-rule="evenodd" clip-rule="evenodd" d="M88.4789 53.2463C88.254 53.0638 88.0282 52.9299 87.8033 52.8419C87.5775 52.7548 87.36 52.7112 87.1484 52.7112C86.8813 52.7112 86.663 52.7737 86.4934 52.9003C86.3247 53.0252 86.2404 53.1904 86.2404 53.3934C86.2404 53.5332 86.2826 53.6482 86.3669 53.7395C86.4521 53.8299 86.5621 53.9096 86.6993 53.9753C86.8366 54.0419 86.9912 54.1003 87.1641 54.1488C87.3369 54.1981 87.5081 54.2507 87.6768 54.3066C88.3524 54.5301 88.8469 54.8293 89.1603 55.2033C89.4728 55.5781 89.63 56.0663 89.63 56.6679C89.63 57.074 89.5613 57.4414 89.424 57.7701C89.2868 58.0989 89.0867 58.3808 88.822 58.6151C88.5583 58.8493 88.2341 59.031 87.8512 59.1608C87.4667 59.2899 87.0326 59.3548 86.5464 59.3548C85.54 59.3548 84.6072 59.0573 83.748 58.463L84.6353 56.8044C84.9446 57.0773 85.2514 57.2803 85.554 57.4126C85.8567 57.5458 86.156 57.6123 86.4521 57.6123C86.7895 57.6123 87.0409 57.5351 87.2062 57.3814C87.3716 57.2277 87.4551 57.0526 87.4551 56.857C87.4551 56.7378 87.4336 56.6351 87.3915 56.5471C87.3493 56.46 87.279 56.3795 87.1806 56.3055C87.0814 56.2323 86.9532 56.1641 86.7944 56.1008C86.6365 56.0375 86.4446 55.9685 86.2189 55.8912C85.9518 55.8074 85.6897 55.7145 85.4325 55.6126C85.1753 55.5115 84.9471 55.3767 84.7461 55.209C84.5452 55.0414 84.3831 54.8293 84.2607 54.5737C84.1367 54.3189 84.0755 53.9951 84.0755 53.603C84.0755 53.211 84.1408 52.8559 84.2707 52.5378C84.4013 52.2189 84.5841 51.946 84.8206 51.7192C85.0562 51.4915 85.344 51.3148 85.6855 51.189C86.027 51.0633 86.4091 51 86.8316 51C87.2261 51 87.6379 51.0542 88.0671 51.1627C88.4962 51.2712 88.908 51.4307 89.3025 51.6403L88.4789 53.2463Z" fill="#348D3D"/>
<path fill-rule="evenodd" clip-rule="evenodd" d="M94.625 58.9142V51H96.6948L100.518 55.8386V51H102.577V58.9142H100.518L96.6948 54.0756V58.9142H94.625Z" fill="#348D3D"/>
<path fill-rule="evenodd" clip-rule="evenodd" d="M108.701 52.7425H106.24V54.0649H108.563V55.8074H106.24V57.1718H108.701V58.9142H104.17V51H108.701V52.7425Z" fill="#348D3D"/>
<path fill-rule="evenodd" clip-rule="evenodd" d="M112.566 54.6945L110.085 51H112.641L113.717 53.0466L115.048 51H117.604L114.974 54.6945L117.941 58.9142H115.417L113.823 56.3318L111.954 58.9142H109.451L112.566 54.6945Z" fill="#348D3D"/>
<path fill-rule="evenodd" clip-rule="evenodd" d="M121.954 52.7425V58.9142H119.884V52.7425H118.184V51H123.654V52.7425H121.954Z" fill="#348D3D"/>
<path fill-rule="evenodd" clip-rule="evenodd" d="M123.918 25.7656H125.736V26.1043H125.022V27.9988H124.628V26.1043H123.918V25.7656Z" fill="#242424"/>
<path fill-rule="evenodd" clip-rule="evenodd" d="M125.99 25.7656H126.544L127.164 27.5138H127.17L127.775 25.7656H128.321V27.9988H127.948V26.276H127.941L127.318 27.9988H126.994L126.371 26.276H126.365V27.9988H125.99V25.7656Z" fill="#242424"/>
<path fill-rule="evenodd" clip-rule="evenodd" d="M9.4079 8.47151C5.55775 7.56411 5.13602 6.96986 5.13602 5.91781V5.86192C5.13602 4.7926 6.20771 4.07425 7.80367 4.07425C9.2144 4.07425 10.5557 4.51562 12.0251 5.46411L12.0408 5.47397C12.4121 5.69507 12.7826 5.79781 13.2068 5.79781C14.3918 5.79781 15.3551 4.8526 15.3551 3.69123C15.3551 2.78877 14.8391 2.16904 14.3504 1.88548C12.4295 0.616438 10.3059 0 7.85908 0C3.61117 0 0.643346 2.53644 0.643346 6.16767V6.22356C0.643346 10.1195 3.18283 11.4921 7.57296 12.5466C11.3123 13.4047 11.5918 14.0819 11.5918 15.0173V15.0731C11.5918 16.2444 10.4341 17.0014 8.643 17.0014C6.75844 17.0014 5.11865 16.4005 3.46977 15.0995C3.096 14.8233 2.66352 14.6893 2.14835 14.6893C0.964192 14.6893 0 15.6353 0 16.7984C0 17.4855 0.332423 18.1323 0.882327 18.5236C3.14231 20.1937 5.79756 21.0764 8.55948 21.0764C13.1299 21.0764 16.0828 18.5877 16.0828 14.7378V14.6844C16.0828 10.643 12.876 9.30986 9.4079 8.47151Z" fill="#242424"/>
<path fill-rule="evenodd" clip-rule="evenodd" d="M75.9583 32.1627C75.9583 33.8501 74.6137 34.8981 72.4505 34.8981H67.9355V29.4003H72.4224C73.743 29.4003 75.9583 29.7521 75.9583 32.106V32.1627ZM72.7027 25.2422H65.7036C64.4368 25.2422 63.4453 26.2285 63.4453 27.4877V43.6836C63.4453 44.9271 64.4368 45.9019 65.7036 45.9019C66.9556 45.9019 67.9355 44.9271 67.9355 43.6836V38.9723H71.4954L76.0873 44.7981C76.6389 45.5411 77.3269 45.9019 78.191 45.9019C79.39 45.9019 80.365 44.9567 80.365 43.7945C80.365 43.0614 80.0177 42.5666 79.6927 42.1622L76.3974 38.0312C79.0551 36.9677 80.5072 34.8381 80.5072 31.9671V31.9129C80.5072 30.1096 79.8936 28.5307 78.7244 27.3381C77.3153 25.9671 75.2331 25.2422 72.7027 25.2422Z" fill="#242424"/>
<path fill-rule="evenodd" clip-rule="evenodd" d="M13.7939 41.6608H4.49185V37.4699H12.3948C13.5326 37.4699 14.4579 36.5625 14.4579 35.4479C14.4579 34.3005 13.5326 33.3668 12.3948 33.3668H4.49185V29.3452H13.6542C14.792 29.3452 15.7182 28.4247 15.7182 27.2937C15.7182 26.1627 14.792 25.2422 13.6542 25.2422H2.26081C0.993135 25.2422 0 26.2285 0 27.4877V43.5151C0 44.7751 0.993135 45.7614 2.26081 45.7614H13.7939C14.9326 45.7614 15.8587 44.8408 15.8587 43.7099C15.8587 42.5797 14.9326 41.6608 13.7939 41.6608Z" fill="#242424"/>
<path fill-rule="evenodd" clip-rule="evenodd" d="M43.5166 19.3694C43.9813 20.4732 44.8479 21.0806 45.9593 21.0806H46.1536C47.2997 21.0806 48.1548 20.4888 48.6261 19.3719L55.5111 3.23432C55.5897 3.05021 55.722 2.6861 55.722 2.30556C55.722 1.09158 54.7421 0.140625 53.4901 0.140625C52.3952 0.140625 51.6254 0.869666 51.3525 1.58227L46.1007 14.5406L40.9333 1.70063C40.5504 0.709392 39.7293 0.140625 38.6807 0.140625C37.4131 0.140625 36.4199 1.10391 36.4199 2.33268C36.4199 2.75515 36.5423 3.08556 36.6581 3.34364L43.5166 19.3694Z" fill="#242424"/>
<path fill-rule="evenodd" clip-rule="evenodd" d="M27.5406 5.97288L30.1851 12.0197H24.8961L27.5406 5.97288ZM21.6132 19.5321L23.1248 16.094H31.9572L33.4134 19.4219C33.8293 20.3992 34.5975 20.9367 35.5766 20.9367C36.7798 20.9367 37.7233 19.9866 37.7233 18.7742C37.7233 18.4496 37.6373 18.12 37.4736 17.8184L30.2024 1.69644C29.7054 0.602466 28.8099 0 27.6811 0H27.5124C26.3672 0 25.4617 0.602466 24.9622 1.69808L17.6903 17.8266C17.5017 18.2014 17.4141 18.5203 17.4141 18.8293C17.4141 20.0112 18.3452 20.9367 19.5343 20.9367C20.4811 20.9367 21.2568 20.4123 21.6132 19.5321Z" fill="#242424"/>
<path fill-rule="evenodd" clip-rule="evenodd" d="M35.6069 25.1016C34.3921 25.1016 33.404 26.0838 33.404 27.2895V37.7295L24.5369 26.3254C24.0324 25.7049 23.418 25.1295 22.3372 25.1295H21.9726C20.7256 25.1295 19.7109 26.1372 19.7109 27.3742V43.7098C19.7109 44.918 20.7132 45.9002 21.9453 45.9002C23.1609 45.9002 24.1499 44.918 24.1499 43.7098V32.881L33.289 44.6427C33.7637 45.2501 34.3971 45.8714 35.4952 45.8714H35.6358C36.8712 45.8714 37.8387 44.8966 37.8387 43.6531V27.2895C37.8387 26.0838 36.8373 25.1016 35.6069 25.1016Z" fill="#242424"/>
<path fill-rule="evenodd" clip-rule="evenodd" d="M88.1782 18.7428C88.1782 17.6118 87.2529 16.6912 86.1151 16.6912H62.7388V12.5019H70.64C71.7787 12.5019 72.7057 11.5945 72.7057 10.4792C72.7057 9.33179 71.7787 8.39892 70.64 8.39892H62.7388V4.37645H71.8994C73.0381 4.37645 73.9642 3.45673 73.9642 2.32577C73.9642 1.19399 73.0381 0.273438 71.8994 0.273438H60.5044C59.2384 0.273438 58.2461 1.26056 58.2461 2.52056V18.548C58.2461 19.808 59.2384 20.7951 60.5044 20.7951H86.1151C87.2529 20.7951 88.1782 19.8745 88.1782 18.7428Z" fill="#242424"/>
<path fill-rule="evenodd" clip-rule="evenodd" d="M57.0542 41.6608H47.7505V37.4699H55.6517C56.7904 37.4699 57.7166 36.5625 57.7166 35.4479C57.7166 34.3005 56.7904 33.3668 55.6517 33.3668H47.7505V29.3452H56.9128C58.0506 29.3452 58.976 28.4247 58.976 27.2937C58.976 26.1627 58.0506 25.2422 56.9128 25.2422H45.517C44.2501 25.2422 43.2578 26.2285 43.2578 27.4877V43.5151C43.2578 44.7751 44.2501 45.7614 45.517 45.7614H57.0542C58.1912 45.7614 59.1165 44.8408 59.1165 43.7099C59.1165 42.5797 58.1912 41.6608 57.0542 41.6608Z" fill="#242424"/>
<path fill-rule="evenodd" clip-rule="evenodd" d="M120.819 25.077C119.998 25.077 119.317 25.4888 118.741 26.3288L113.628 33.5641L108.599 26.3633C108.466 26.1693 108.298 25.9532 108.088 25.7543C109.232 23.7882 109.889 21.565 109.985 19.2315C110.142 15.4367 108.803 11.8088 106.214 9.01509C103.625 6.22221 100.098 4.5981 96.2798 4.44194C90.8635 4.22084 85.8523 7.0055 83.2012 11.7102C82.6314 12.7211 82.9945 14 84.0116 14.5663C85.0287 15.1326 86.3154 14.7726 86.8851 13.7617C88.7548 10.4436 92.2891 8.48002 96.1062 8.63536C98.797 8.74468 101.284 9.89043 103.109 11.8589C104.933 13.8274 105.877 16.3844 105.766 19.0597C105.655 21.7343 104.504 24.2058 102.523 26.0197C100.543 27.8329 97.9709 28.7715 95.2792 28.6614C91.8152 28.52 88.7077 26.6543 86.9653 23.6699C86.3807 22.6671 85.0891 22.3252 84.0802 22.9071C83.0714 23.4882 82.7282 24.7729 83.3128 25.7756C84.038 27.0176 84.9311 28.1222 85.954 29.0699C84.5871 30.8929 83.8255 33.1499 83.8255 35.5039V35.5597C83.8255 38.4858 84.8666 41.1504 86.7578 43.063C88.7217 45.0488 91.4026 46.0984 94.5118 46.0984C97.7691 46.0984 100.26 44.9008 101.761 43.9055C102.737 43.3022 103.211 42.4482 103.211 41.2926V36.0891C103.211 34.8291 102.219 33.8419 100.952 33.8419H95.4934C94.3556 33.8419 93.4294 34.7493 93.4294 35.8647C93.4294 36.9669 94.3556 37.8636 95.4934 37.8636H98.8309V40.7181C97.6748 41.4981 96.1574 41.9411 94.6251 41.9411C91.0098 41.9411 88.4844 39.2937 88.4844 35.5039V35.4504C88.4844 34.0228 88.9161 32.6641 89.6934 31.5636C91.3654 32.3288 93.197 32.7776 95.1056 32.8548C95.3694 32.8663 95.6315 32.8696 95.8928 32.8663C99.3105 32.8228 102.552 31.5817 105.13 29.3296L111.365 37.8439V43.6861C111.365 44.9091 112.367 45.9044 113.598 45.9044C114.865 45.9044 115.857 44.9296 115.857 43.6861V37.7608L122.445 28.8052C122.836 28.2841 123.026 27.7819 123.026 27.2682C123.026 26.0189 122.077 25.077 120.819 25.077Z" fill="#242424"/>
<path fill-rule="evenodd" clip-rule="evenodd" d="M92.3353 20.0457C91.5117 20.0457 90.8427 19.38 90.8427 18.5589C90.8427 17.7378 91.5117 17.072 92.3353 17.072C93.1598 17.072 93.8279 17.7378 93.8279 18.5589C93.8279 19.38 93.1598 20.0457 92.3353 20.0457ZM92.3353 14.9688C90.4086 14.9688 88.8457 16.5756 88.8457 18.5564C88.8457 20.5381 90.4086 22.1449 92.3353 22.1449C94.2621 22.1449 95.8241 20.5381 95.8241 18.5564C95.8241 16.5756 94.2621 14.9688 92.3353 14.9688Z" fill="#348D3D"/>
<path fill-rule="evenodd" clip-rule="evenodd" d="M102.769 15.4114C102.579 15.2265 102.327 15.1328 102.019 15.1328C101.716 15.1328 101.468 15.2273 101.279 15.4131C101.093 15.5956 101 15.8536 101 16.1783V18.7402L98.8715 16.0082L98.8343 15.9597C98.7698 15.8734 98.7078 15.7895 98.6466 15.709C98.5581 15.5914 98.4713 15.4969 98.382 15.4205C98.2811 15.3325 98.1628 15.2627 98.0305 15.2109C97.8957 15.1591 97.7378 15.1328 97.5616 15.1328C97.3334 15.1328 97.1168 15.1879 96.9191 15.2964C96.7116 15.4098 96.5586 15.5651 96.4618 15.7599C96.3891 15.9177 96.3535 16.1158 96.3535 16.364V21.0366C96.3535 21.3572 96.4503 21.6145 96.6421 21.8002C96.8356 21.9876 97.0878 22.0829 97.3913 22.0829C97.6865 22.0829 97.9362 21.9901 98.1314 21.8068C98.3299 21.6219 98.4299 21.363 98.4299 21.0366V18.5397L100.496 21.2249C100.575 21.3243 100.655 21.4205 100.734 21.5142C100.829 21.626 100.932 21.7254 101.044 21.8093C101.168 21.9038 101.305 21.9745 101.451 22.0188C101.59 22.0616 101.745 22.0829 101.912 22.0829C102.636 22.0829 103.052 21.6671 103.052 20.9413V16.1783C103.052 15.8528 102.956 15.5947 102.769 15.4114Z" fill="#348D3D"/>
</svg>
